<svg style="overflow: visible; width: 43em; height: 12.6841em; display: block" viewBox="0 0 860 253.682" width="860pt" height="253.682pt" xmlns="http://www.w3.org/2000/svg" xmlns:xlink="http://www.w3.org/1999/xlink" xmlns:h5="http://www.w3.org/1999/xhtml"><g><path fill="#ffffff" fill-rule="nonzero" d="M 0 0v 253.682h 860v -253.682Z "/><g transform="matrix(1 0 0 -1 112.9605 36.138)"><use xlink:href="#gF363B11BD4DF6E737981DBEAD41C9C7" x="0" y="0" fill="#245b75" fill-rule="nonzero"/><use xlink:href="#g38A4D5E79F3035871230E4FA783EEDFF" x="5.015" y="0" fill="#245b75" fill-rule="nonzero"/><use xlink:href="#gF7A8B826AC2DD2AFA0728C6E86A0225" x="15.096" y="0" fill="#245b75" fill-rule="nonzero"/><use xlink:href="#g7189B39A6FAE275670A69BC4A4F7DA4" x="21.08" y="0" fill="#245b75" fill-rule="nonzero"/><use xlink:href="#g38A4D5E79F3035871230E4FA783EEDFF" x="30.838" y="0" fill="#245b75" fill-rule="nonzero"/><use xlink:href="#g924EC9B95C8A0B0E00E81748C9749D61" x="40.919" y="0" fill="#245b75" fill-rule="nonzero"/><use xlink:href="#g7189B39A6FAE275670A69BC4A4F7DA4" x="51.306" y="0" fill="#245b75" fill-rule="nonzero"/><use xlink:href="#g924EC9B95C8A0B0E00E81748C9749D61" x="61.064" y="0" fill="#245b75" fill-rule="nonzero"/><use xlink:href="#g41BCE3ACFF72191A33F9CF8675B489D6" x="76.177" y="0" fill="#245b75" fill-rule="nonzero"/><use xlink:href="#g408A7A6B5B15E2E790FD01386FBB5FA3" x="80.563" y="0" fill="#245b75" fill-rule="nonzero"/><use xlink:href="#g63172DF82A3B7112E55E0F2FDE57DAAA" x="90.95" y="0" fill="#245b75" fill-rule="nonzero"/><use xlink:href="#gD60FB6EF16E95041B2583D0B1FF0FE75" x="100.708" y="0" fill="#245b75" fill-rule="nonzero"/><use xlink:href="#g41BCE3ACFF72191A33F9CF8675B489D6" x="110.466" y="0" fill="#245b75" fill-rule="nonzero"/><use xlink:href="#g49FC4DA35F484ED552FFF03BF197C652" x="119.578" y="0" fill="#245b75" fill-rule="nonzero"/><use xlink:href="#gF7A8B826AC2DD2AFA0728C6E86A0225" x="128.707" y="0" fill="#245b75" fill-rule="nonzero"/><use xlink:href="#g4851A2FD0A9507704E5E9B1068D82307" x="134.691" y="0" fill="#245b75" fill-rule="nonzero"/><use xlink:href="#g96FA9F8655F4F1A984BCC89FB84562B0" x="141.304" y="0" fill="#245b75" fill-rule="nonzero"/><use xlink:href="#g63172DF82A3B7112E55E0F2FDE57DAAA" x="151.385" y="0" fill="#245b75" fill-rule="nonzero"/><use xlink:href="#gF7A8B826AC2DD2AFA0728C6E86A0225" x="161.143" y="0" fill="#245b75" fill-rule="nonzero"/><use xlink:href="#g96FA9F8655F4F1A984BCC89FB84562B0" x="167.127" y="0" fill="#245b75" fill-rule="nonzero"/><use xlink:href="#g4851A2FD0A9507704E5E9B1068D82307" x="177.208" y="0" fill="#245b75" fill-rule="nonzero"/><use xlink:href="#g7189B39A6FAE275670A69BC4A4F7DA4" x="183.821" y="0" fill="#245b75" fill-rule="nonzero"/></g><g transform="translate(99.55 58.138)"><g transform="matrix(1 0 0 -1 97.98 14.28)"><use xlink:href="#gEB6F2E5761867EE699C67FD7C2F76830" x="0" y="0" fill="#1a1a1a" fill-rule="nonzero"/><use xlink:href="#gF552C9AAD511651B4FB4EC9AA8E7AC47" x="11.48" y="0" fill="#1a1a1a" fill-rule="nonzero"/></g><path fill="none" stroke="#000000" stroke-width="1" stroke-linecap="butt" stroke-linejoin="miter" stroke-miterlimit="4" transform="translate(71.57 42.28)" d="M 0 0l 38.63 -22"/><g transform="translate(0 48.28)"><g transform="matrix(1 0 0 -1 60.09 14.28)"><use xlink:href="#gE7AB63578547B09BE8D6055C8701CE84" x="0" y="0" fill="#1a1a1a" fill-rule="nonzero"/><use xlink:href="#gF552C9AAD511651B4FB4EC9AA8E7AC47" x="10" y="0" fill="#1a1a1a" fill-rule="nonzero"/></g><path fill="none" stroke="#000000" stroke-width="1" stroke-linecap="butt" stroke-linejoin="miter" stroke-miterlimit="4" transform="translate(52.57 42.28)" d="M 0 0l 19 -22"/><g transform="matrix(1 0 0 -1 0 62.56)"><use xlink:href="#gCC4C94A3A44EF7E83B7C565A73D79CBD" x="0" y="0" fill="#1a1a1a" fill-rule="nonzero"/><use xlink:href="#g16721EB01F8A61B2836375678F03DE8" x="10.72" y="0" fill="#1a1a1a" fill-rule="nonzero"/><use xlink:href="#gE41DF878BA4F3B6D9C7BBE2C8D88CC7F" x="22.94" y="0" fill="#1a1a1a" fill-rule="nonzero"/><use xlink:href="#gB6F0790BD384C13DF2E1977168310CE4" x="35.16" y="0" fill="#1a1a1a" fill-rule="nonzero"/><use xlink:href="#gE20D1E86C7BF38D78C716EDB8313EF72" x="48.86" y="0" fill="#1a1a1a" fill-rule="nonzero"/><use xlink:href="#gC7A00875F4290DCDB6CAD11C23961C08" x="61.82" y="0" fill="#1a1a1a" fill-rule="nonzero"/><use xlink:href="#g500D2945B6B0C263798723C7DECE312A" x="76.26" y="0" fill="#1a1a1a" fill-rule="nonzero"/><use xlink:href="#gD7AB49A0BE3336956281F0780AC622AD" x="90.7" y="0" fill="#1a1a1a" fill-rule="nonzero"/></g><g transform="matrix(1 0 0 -1 35.53 89.84)"><use xlink:href="#g4F8D5E934BDC4565626B925089EB78B4" x="0" y="0" fill="#1a1a1a" fill-rule="nonzero"/><use xlink:href="#gFD237A5484756E9AA324227E37DB9974" x="5.56" y="0" fill="#1a1a1a" fill-rule="nonzero"/><use xlink:href="#gD4ADD0A69C12E5597305A2D7433CA440" x="11.86" y="0" fill="#1a1a1a" fill-rule="nonzero"/><use xlink:href="#g1D7AD8D49C3D76A745489D8C8BC4FC29" x="18.52" y="0" fill="#1a1a1a" fill-rule="nonzero"/><use xlink:href="#g8DBAC9A3086434C357F768B8944F9B95" x="28.52" y="0" fill="#1a1a1a" fill-rule="nonzero"/></g><path fill="none" stroke="#000000" stroke-width="1" stroke-linecap="butt" stroke-linejoin="miter" stroke-miterlimit="4" transform="translate(138.14 42.28)" d="M 0 0l -66.57 -22"/><g transform="matrix(1 0 0 -1 133.14 62.56)"><use xlink:href="#gE7AB63578547B09BE8D6055C8701CE84" x="0" y="0" fill="#1a1a1a" fill-rule="nonzero"/></g></g><path fill="none" stroke="#000000" stroke-width="1" stroke-linecap="butt" stroke-linejoin="miter" stroke-miterlimit="4" transform="translate(195.77 42.28)" d="M 0 0l -85.57 -22"/><g transform="matrix(1 0 0 -1 190.03 62.56)"><use xlink:href="#gEB6F2E5761867EE699C67FD7C2F76830" x="0" y="0" fill="#8c1515" fill-rule="nonzero"/></g><g transform="matrix(1 0 0 -1 171.14 89.84)"><use xlink:href="#gB6A6403012270FF02BBB0EAFA55EE33" x="0" y="0" fill="#8c1515" fill-rule="nonzero"/><use xlink:href="#g2E6465EEAF83CFB3125C036085DD8AC8" x="5.18" y="0" fill="#8c1515" fill-rule="nonzero"/><use xlink:href="#g91F219A66C1BA354ED6F6D4B683D0D7E" x="17.04" y="0" fill="#8c1515" fill-rule="nonzero"/><use xlink:href="#g2F425BE466C9DCBC58D7377CA36E51DA" x="27.78" y="0" fill="#8c1515" fill-rule="nonzero"/><use xlink:href="#gFD237A5484756E9AA324227E37DB9974" x="37.78" y="0" fill="#8c1515" fill-rule="nonzero"/><use xlink:href="#gF8FC0DC7708C6AAFB6D4E4EF9829495C" x="44.08" y="0" fill="#8c1515" fill-rule="nonzero"/></g></g><g transform="matrix(1 0 0 -1 146.774 229.682)"><use xlink:href="#g6BA70135D52C6C9DBB23B9612EF82FC1" x="0" y="0" fill="#1a1a1a" fill-rule="nonzero"/><use xlink:href="#g4494A18F86583929ACF5992AF815273C" x="8" y="0" fill="#1a1a1a" fill-rule="nonzero"/><use xlink:href="#gB76A3373AC653EE95CC024987E1CD9" x="16.592" y="0" fill="#1a1a1a" fill-rule="nonzero"/><use xlink:href="#g4BE173CC61B2A9AE63FBA9CC834A9B68" x="21.92" y="0" fill="#1a1a1a" fill-rule="nonzero"/><use xlink:href="#g7C815C8B9DA3AD91FD51CB7A3A7E8BBF" x="29.92" y="0" fill="#1a1a1a" fill-rule="nonzero"/><use xlink:href="#g79854F1CD88442C5FC5B90384B771EB4" x="38.816" y="0" fill="#1a1a1a" fill-rule="nonzero"/><use xlink:href="#g351562DC7666F64B72FCF7315F52055A" x="47.408" y="0" fill="#1a1a1a" fill-rule="nonzero"/><use xlink:href="#gC976FC95DD3C9237829BC4B5040D1736" x="56.304" y="0" fill="#1a1a1a" fill-rule="nonzero"/><use xlink:href="#g61CECA910D47192862F630690488ECA3" x="62.528" y="0" fill="#1a1a1a" fill-rule="nonzero"/><use xlink:href="#g4494A18F86583929ACF5992AF815273C" x="67.568" y="0" fill="#1a1a1a" fill-rule="nonzero"/><use xlink:href="#gCA50D4B2A9769A2B58ECD4E109D3EDCE" x="76.16" y="0" fill="#1a1a1a" fill-rule="nonzero"/><use xlink:href="#g6B45CBA016B6B623FDA3146C2EF8DAE4" x="85.056" y="0" fill="#1a1a1a" fill-rule="nonzero"/><use xlink:href="#g61CECA910D47192862F630690488ECA3" x="89.504" y="0" fill="#1a1a1a" fill-rule="nonzero"/><use xlink:href="#gB76A3373AC653EE95CC024987E1CD9" x="94.544" y="0" fill="#1a1a1a" fill-rule="nonzero"/><use xlink:href="#gD27733CB4F589A49ADA08C9C44FA3371" x="99.872" y="0" fill="#1a1a1a" fill-rule="nonzero"/><use xlink:href="#g4494A18F86583929ACF5992AF815273C" x="103.424" y="0" fill="#1a1a1a" fill-rule="nonzero"/><use xlink:href="#g4F5F6BD8A7D68756244F0FC18350D7C5" x="112.016" y="0" fill="#1a1a1a" fill-rule="nonzero"/><use xlink:href="#gBEDDEB2E78195596984FC62BDEABC2E8" x="121.504" y="0" fill="#1a1a1a" fill-rule="nonzero"/></g><g transform="matrix(1 0 0 -1 413.05 136.711)"><use xlink:href="#g315A18166C6C92C3978B77F90414D71" x="0" y="0" fill="#8c1515" fill-rule="nonzero"/></g><g transform="matrix(1 0 0 -1 580.703 36.138)"><use xlink:href="#g6AB75E16F8BF6E3FDDD6B1181CC34A54" x="0" y="0" fill="#245b75" fill-rule="nonzero"/><use xlink:href="#g408A7A6B5B15E2E790FD01386FBB5FA3" x="12.274" y="0" fill="#245b75" fill-rule="nonzero"/><use xlink:href="#g408A7A6B5B15E2E790FD01386FBB5FA3" x="22.661" y="0" fill="#245b75" fill-rule="nonzero"/><use xlink:href="#gF7A8B826AC2DD2AFA0728C6E86A0225" x="33.048" y="0" fill="#245b75" fill-rule="nonzero"/><use xlink:href="#gD60FB6EF16E95041B2583D0B1FF0FE75" x="43.758" y="0" fill="#245b75" fill-rule="nonzero"/><use xlink:href="#g38A4D5E79F3035871230E4FA783EEDFF" x="53.516" y="0" fill="#245b75" fill-rule="nonzero"/><use xlink:href="#gF7A8B826AC2DD2AFA0728C6E86A0225" x="63.597" y="0" fill="#245b75" fill-rule="nonzero"/><use xlink:href="#gF02DFC422346E717CBD33E347E1010E1" x="69.581" y="0" fill="#245b75" fill-rule="nonzero"/><use xlink:href="#g63172DF82A3B7112E55E0F2FDE57DAAA" x="73.967" y="0" fill="#245b75" fill-rule="nonzero"/><use xlink:href="#gF02DFC422346E717CBD33E347E1010E1" x="83.725" y="0" fill="#245b75" fill-rule="nonzero"/><use xlink:href="#gC0F62BC51653D02AC2E78ABEF300D667" x="88.111" y="0" fill="#245b75" fill-rule="nonzero"/><use xlink:href="#gD60FB6EF16E95041B2583D0B1FF0FE75" x="98.498" y="0" fill="#245b75" fill-rule="nonzero"/><use xlink:href="#gF7A8B826AC2DD2AFA0728C6E86A0225" x="108.256" y="0" fill="#245b75" fill-rule="nonzero"/><use xlink:href="#gF02DFC422346E717CBD33E347E1010E1" x="114.24" y="0" fill="#245b75" fill-rule="nonzero"/><use xlink:href="#g408A7A6B5B15E2E790FD01386FBB5FA3" x="118.626" y="0" fill="#245b75" fill-rule="nonzero"/><use xlink:href="#g38A4D5E79F3035871230E4FA783EEDFF" x="129.013" y="0" fill="#245b75" fill-rule="nonzero"/></g><g transform="translate(555.57 58.138)"><g transform="matrix(1 0 0 -1 82.46 14.28)"><use xlink:href="#gEB6F2E5761867EE699C67FD7C2F76830" x="0" y="0" fill="#1a1a1a" fill-rule="nonzero"/><use xlink:href="#gF552C9AAD511651B4FB4EC9AA8E7AC47" x="11.48" y="0" fill="#1a1a1a" fill-rule="nonzero"/></g><path fill="none" stroke="#000000" stroke-width="1" stroke-linecap="butt" stroke-linejoin="miter" stroke-miterlimit="4" transform="translate(56.05 42.28)" d="M 0 0l 38.63 -22"/><g transform="translate(0 48.28)"><g transform="matrix(1 0 0 -1 44.57 14.28)"><use xlink:href="#gE7AB63578547B09BE8D6055C8701CE84" x="0" y="0" fill="#1a1a1a" fill-rule="nonzero"/><use xlink:href="#gF552C9AAD511651B4FB4EC9AA8E7AC47" x="10" y="0" fill="#1a1a1a" fill-rule="nonzero"/></g><path fill="none" stroke="#000000" stroke-width="1" stroke-linecap="butt" stroke-linejoin="miter" stroke-miterlimit="4" transform="translate(37.05 42.28)" d="M 0 0l 19 -22"/><g transform="matrix(1 0 0 -1 0 62.56)"><use xlink:href="#gCC4C94A3A44EF7E83B7C565A73D79CBD" x="0" y="0" fill="#1a1a1a" fill-rule="nonzero"/><use xlink:href="#g4EC2CB91F65BF93630EE148790A2E033" x="10.72" y="0" fill="#1a1a1a" fill-rule="nonzero"/><use xlink:href="#g688E0CD1C5E7342757B17E3ADF1F26AD" x="24.06" y="0" fill="#1a1a1a" fill-rule="nonzero"/><use xlink:href="#g1B7F49F910B576701B832486E6878297" x="39.26" y="0" fill="#1a1a1a" fill-rule="nonzero"/><use xlink:href="#g1B7F49F910B576701B832486E6878297" x="56.68" y="0" fill="#1a1a1a" fill-rule="nonzero"/></g><g transform="matrix(1 0 0 -1 6.48 89.84)"><use xlink:href="#g4F8D5E934BDC4565626B925089EB78B4" x="0" y="0" fill="#1a1a1a" fill-rule="nonzero"/><use xlink:href="#gB773CD94B456694123B737648DC4D5A2" x="5.56" y="0" fill="#1a1a1a" fill-rule="nonzero"/><use xlink:href="#g14009543D0208FBAC417C6FFB05F04FC" x="16.3" y="0" fill="#1a1a1a" fill-rule="nonzero"/><use xlink:href="#gA985442DEE5C1EF1013546D4307356A5" x="27.78" y="0" fill="#1a1a1a" fill-rule="nonzero"/><use xlink:href="#g960B7B1CCB13C20C9368DFB85CBECAA2" x="44.84" y="0" fill="#1a1a1a" fill-rule="nonzero"/><use xlink:href="#g8DBAC9A3086434C357F768B8944F9B95" x="55.58" y="0" fill="#1a1a1a" fill-rule="nonzero"/></g><path fill="none" stroke="#000000" stroke-width="1" stroke-linecap="butt" stroke-linejoin="miter" stroke-miterlimit="4" transform="translate(107.1 42.28)" d="M 0 0l -51.05 -22"/><g transform="matrix(1 0 0 -1 102.1 62.56)"><use xlink:href="#gE7AB63578547B09BE8D6055C8701CE84" x="0" y="0" fill="#1a1a1a" fill-rule="nonzero"/></g></g><path fill="none" stroke="#000000" stroke-width="1" stroke-linecap="butt" stroke-linejoin="miter" stroke-miterlimit="4" transform="translate(164.73 42.28)" d="M 0 0l -70.05 -22"/><g transform="matrix(1 0 0 -1 158.99 62.56)"><use xlink:href="#gEB6F2E5761867EE699C67FD7C2F76830" x="0" y="0" fill="#8c1515" fill-rule="nonzero"/></g><g transform="matrix(1 0 0 -1 140.1 89.84)"><use xlink:href="#gB6A6403012270FF02BBB0EAFA55EE33" x="0" y="0" fill="#8c1515" fill-rule="nonzero"/><use xlink:href="#g2E6465EEAF83CFB3125C036085DD8AC8" x="5.18" y="0" fill="#8c1515" fill-rule="nonzero"/><use xlink:href="#g91F219A66C1BA354ED6F6D4B683D0D7E" x="17.04" y="0" fill="#8c1515" fill-rule="nonzero"/><use xlink:href="#g2F425BE466C9DCBC58D7377CA36E51DA" x="27.78" y="0" fill="#8c1515" fill-rule="nonzero"/><use xlink:href="#gFD237A5484756E9AA324227E37DB9974" x="37.78" y="0" fill="#8c1515" fill-rule="nonzero"/><use xlink:href="#gF8FC0DC7708C6AAFB6D4E4EF9829495C" x="44.08" y="0" fill="#8c1515" fill-rule="nonzero"/></g></g><g transform="matrix(1 0 0 -1 606.37 229.682)"><use xlink:href="#gF944168B5EF08D92B1537F2BA827F6A1" x="0" y="0" fill="#1a1a1a" fill-rule="nonzero"/><use xlink:href="#g9BDBDF23EE9D4F4A276DD26AFB00FB11" x="8.304" y="0" fill="#1a1a1a" fill-rule="nonzero"/><use xlink:href="#g8FE02918DF27341599B8BDEFED69F072" x="16.896" y="0" fill="#1a1a1a" fill-rule="nonzero"/><use xlink:href="#gCA50D4B2A9769A2B58ECD4E109D3EDCE" x="30.544" y="0" fill="#1a1a1a" fill-rule="nonzero"/><use xlink:href="#g6B45CBA016B6B623FDA3146C2EF8DAE4" x="39.44" y="0" fill="#1a1a1a" fill-rule="nonzero"/><use xlink:href="#g79854F1CD88442C5FC5B90384B771EB4" x="43.888" y="0" fill="#1a1a1a" fill-rule="nonzero"/><use xlink:href="#g9BDBDF23EE9D4F4A276DD26AFB00FB11" x="52.48" y="0" fill="#1a1a1a" fill-rule="nonzero"/><use xlink:href="#g8FE02918DF27341599B8BDEFED69F072" x="61.072" y="0" fill="#1a1a1a" fill-rule="nonzero"/><use xlink:href="#g4494A18F86583929ACF5992AF815273C" x="74.72" y="0" fill="#1a1a1a" fill-rule="nonzero"/><use xlink:href="#gBEDDEB2E78195596984FC62BDEABC2E8" x="83.312" y="0" fill="#1a1a1a" fill-rule="nonzero"/></g></g><defs><symbol id="gF363B11BD4DF6E737981DBEAD41C9C7" overflow="visible"><path d="M 0 0m 1.173 12.138v -12.138h 2.669v 12.138h -2.669Z "/></symbol><symbol id="g38A4D5E79F3035871230E4FA783EEDFF" overflow="visible"><path d="M 0 0m 0.918 8.789v -8.789h 2.414v 4.607q 0 1.343 0.442 1.9295q 0.442 0.5865 1.428 0.5865q 0.867 0 1.207 -0.5355q 0.34 -0.5355 0.34 -1.6235v -4.964h 2.414v 5.406q 0 0.816 -0.1445 1.4875q -0.1445 0.6715 -0.5015 1.139q -0.357 0.4675 -0.9775 0.731q -0.6205 0.2635 -1.5895 0.2635q -0.765 0 -1.496 -0.3485q -0.731 -0.3485 -1.19 -1.1135h -0.051v 1.224h -2.295Z "/></symbol><symbol id="gF7A8B826AC2DD2AFA0728C6E86A0225" overflow="visible"><path d="M 0 0m 3.978 8.789v 2.635h -2.414v -2.635h -1.462v -1.615h 1.462v -5.185q 0 -0.663 0.221 -1.071q 0.221 -0.408 0.6035 -0.629q 0.3825 -0.221 0.884 -0.2975q 0.5015 -0.0765 1.0625 -0.0765q 0.357 0 0.731 0.017q 0.374 0.017 0.68 0.068v 1.87q -0.17 -0.034 -0.357 -0.051q -0.187 -0.017 -0.391 -0.017q -0.612 0 -0.816 0.204q -0.204 0.204 -0.204 0.816v 4.352h 1.768v 1.615h -1.768Z "/></symbol><symbol id="g7189B39A6FAE275670A69BC4A4F7DA4" overflow="visible"><path d="M 0 0m 6.834 5.338h -3.927q 0.017 0.255 0.1105 0.578q 0.0935 0.323 0.323 0.612q 0.2295 0.289 0.612 0.4845q 0.3825 0.1955 0.9605 0.1955q 0.884 0 1.3175 -0.476q 0.4335 -0.476 0.6035 -1.394Z m -3.927 -1.53h 6.341q 0.068 1.02 -0.17 1.955q -0.238 0.935 -0.7735 1.666q -0.5355 0.731 -1.3685 1.1645q -0.833 0.4335 -1.955 0.4335q -1.003 0 -1.8275 -0.357q -0.8245 -0.357 -1.4195 -0.9775q -0.595 -0.6205 -0.918 -1.4705q -0.323 -0.85 -0.323 -1.836q 0 -1.02 0.3145 -1.87q 0.3145 -0.85 0.8925 -1.462q 0.578 -0.612 1.411 -0.9435q 0.833 -0.3315 1.87 -0.3315q 1.496 0 2.55 0.68q 1.054 0.68 1.564 2.261h -2.125q -0.119 -0.408 -0.646 -0.7735q -0.527 -0.3655 -1.258 -0.3655q -1.02 0 -1.564 0.527q -0.544 0.527 -0.595 1.7Z "/></symbol><symbol id="g924EC9B95C8A0B0E00E81748C9749D61" overflow="visible"><path d="M 0 0m 7.157 4.42q 0 -0.544 -0.102 -1.054q -0.102 -0.51 -0.34 -0.9095q -0.238 -0.3995 -0.6375 -0.6375q -0.3995 -0.238 -0.9945 -0.238q -0.561 0 -0.9605 0.2465q -0.3995 0.2465 -0.663 0.646q -0.2635 0.3995 -0.3825 0.9095q -0.119 0.51 -0.119 1.02q 0 0.544 0.1105 1.0455q 0.1105 0.5015 0.357 0.8925q 0.2465 0.391 0.6545 0.629q 0.408 0.238 1.003 0.238q 0.595 0 0.986 -0.238q 0.391 -0.238 0.6375 -0.6205q 0.2465 -0.3825 0.3485 -0.884q 0.102 -0.5015 0.102 -1.0455Z m 0.034 -3.298v -1.122h 2.295v 12.138h -2.414v -4.42h -0.034q -0.408 0.646 -1.1135 0.9775q -0.7055 0.3315 -1.4875 0.3315q -0.969 0 -1.7 -0.3825q -0.731 -0.3825 -1.2155 -1.0115q -0.4845 -0.629 -0.731 -1.4535q -0.2465 -0.8245 -0.2465 -1.7085q 0 -0.918 0.2465 -1.768q 0.2465 -0.85 0.731 -1.5045q 0.4845 -0.6545 1.2325 -1.037q 0.748 -0.3825 1.734 -0.3825q 0.867 0 1.5555 0.3145q 0.6885 0.3145 1.1135 1.0285h 0.034Z "/></symbol><symbol id="g41BCE3ACFF72191A33F9CF8675B489D6" overflow="visible"><path d="M 0 0m 0.986 12.138v -12.138h 2.414v 12.138h -2.414Z "/></symbol><symbol id="g408A7A6B5B15E2E790FD01386FBB5FA3" overflow="visible"><path d="M 0 0m 3.06 4.386q 0 0.527 0.102 1.037q 0.102 0.51 0.3485 0.901q 0.2465 0.391 0.6545 0.6375q 0.408 0.2465 1.02 0.2465q 0.612 0 1.0285 -0.2465q 0.4165 -0.2465 0.663 -0.6375q 0.2465 -0.391 0.3485 -0.901q 0.102 -0.51 0.102 -1.037q 0 -0.527 -0.102 -1.0285q -0.102 -0.5015 -0.3485 -0.901q -0.2465 -0.3995 -0.663 -0.6375q -0.4165 -0.238 -1.0285 -0.238q -0.612 0 -1.02 0.238q -0.408 0.238 -0.6545 0.6375q -0.2465 0.3995 -0.3485 0.901q -0.102 0.5015 -0.102 1.0285Z m -2.414 0q 0 -1.054 0.323 -1.904q 0.323 -0.85 0.918 -1.4535q 0.595 -0.6035 1.428 -0.9265q 0.833 -0.323 1.87 -0.323q 1.037 0 1.8785 0.323q 0.8415 0.323 1.4365 0.9265q 0.595 0.6035 0.918 1.4535q 0.323 0.85 0.323 1.904q 0 1.054 -0.323 1.9125q -0.323 0.8585 -0.918 1.462q -0.595 0.6035 -1.4365 0.935q -0.8415 0.3315 -1.8785 0.3315q -1.037 0 -1.87 -0.3315q -0.833 -0.3315 -1.428 -0.935q -0.595 -0.6035 -0.918 -1.462q -0.323 -0.8585 -0.323 -1.9125Z "/></symbol><symbol id="g63172DF82A3B7112E55E0F2FDE57DAAA" overflow="visible"><path d="M 0 0m 6.902 5.695h 2.363q -0.051 0.85 -0.408 1.4705q -0.357 0.6205 -0.9265 1.037q -0.5695 0.4165 -1.292 0.6205q -0.7225 0.204 -1.5045 0.204q -1.071 0 -1.904 -0.357q -0.833 -0.357 -1.411 -0.9945q -0.578 -0.6375 -0.8755 -1.513q -0.2975 -0.8755 -0.2975 -1.8955q 0 -0.986 0.323 -1.8105q 0.323 -0.8245 0.901 -1.4195q 0.578 -0.595 1.4025 -0.9265q 0.8245 -0.3315 1.8105 -0.3315q 1.751 0 2.873 0.918q 1.122 0.918 1.36 2.669h -2.329q -0.119 -0.816 -0.5865 -1.3005q -0.4675 -0.4845 -1.3345 -0.4845q -0.561 0 -0.952 0.255q -0.391 0.255 -0.6205 0.6545q -0.2295 0.3995 -0.3315 0.8925q -0.102 0.493 -0.102 0.969q 0 0.493 0.102 0.9945q 0.102 0.5015 0.3485 0.918q 0.2465 0.4165 0.6375 0.68q 0.391 0.2635 0.969 0.2635q 1.547 0 1.785 -1.513Z "/></symbol><symbol id="gD60FB6EF16E95041B2583D0B1FF0FE75" overflow="visible"><path d="M 0 0m 0.816 6.086q 0.051 0.85 0.425 1.411q 0.374 0.561 0.952 0.901q 0.578 0.34 1.3005 0.4845q 0.7225 0.1445 1.4535 0.1445q 0.663 0 1.343 -0.0935q 0.68 -0.0935 1.241 -0.3655q 0.561 -0.272 0.918 -0.7565q 0.357 -0.4845 0.357 -1.2835v -4.573q 0 -0.595 0.068 -1.139q 0.068 -0.544 0.238 -0.816h -2.448q -0.068 0.204 -0.1105 0.4165q -0.0425 0.2125 -0.0595 0.4335q -0.578 -0.595 -1.36 -0.833q -0.782 -0.238 -1.598 -0.238q -0.629 0 -1.173 0.153q -0.544 0.153 -0.952 0.476q -0.408 0.323 -0.6375 0.816q -0.2295 0.493 -0.2295 1.173q 0 0.748 0.2635 1.2325q 0.2635 0.4845 0.68 0.7735q 0.4165 0.289 0.952 0.4335q 0.5355 0.1445 1.0795 0.2295q 0.544 0.085 1.071 0.136q 0.527 0.051 0.935 0.153q 0.408 0.102 0.646 0.2975q 0.238 0.1955 0.221 0.5695q 0 0.391 -0.1275 0.6205q -0.1275 0.2295 -0.34 0.357q -0.2125 0.1275 -0.493 0.17q -0.2805 0.0425 -0.6035 0.0425q -0.714 0 -1.122 -0.306q -0.408 -0.306 -0.476 -1.02h -2.414Z m 5.576 -1.785q -0.153 -0.136 -0.3825 -0.2125q -0.2295 -0.0765 -0.493 -0.1275q -0.2635 -0.051 -0.5525 -0.085q -0.289 -0.034 -0.578 -0.085q -0.272 -0.051 -0.5355 -0.136q -0.2635 -0.085 -0.459 -0.2295q -0.1955 -0.1445 -0.3145 -0.3655q -0.119 -0.221 -0.119 -0.561q 0 -0.323 0.119 -0.544q 0.119 -0.221 0.323 -0.3485q 0.204 -0.1275 0.476 -0.1785q 0.272 -0.051 0.561 -0.051q 0.714 0 1.105 0.238q 0.391 0.238 0.578 0.5695q 0.187 0.3315 0.2295 0.6715q 0.0425 0.34 0.0425 0.544v 0.901Z "/></symbol><symbol id="g49FC4DA35F484ED552FFF03BF197C652" overflow="visible"><path d="M 0 0m 2.788 2.856h -2.295q 0.034 -0.884 0.3995 -1.4705q 0.3655 -0.5865 0.935 -0.9435q 0.5695 -0.357 1.3005 -0.51q 0.731 -0.153 1.496 -0.153q 0.748 0 1.4705 0.1445q 0.7225 0.1445 1.2835 0.5015q 0.561 0.357 0.9095 0.9435q 0.3485 0.5865 0.3485 1.4535q 0 0.612 -0.238 1.0285q -0.238 0.4165 -0.629 0.697q -0.391 0.2805 -0.8925 0.4505q -0.5015 0.17 -1.0285 0.289q -0.51 0.119 -1.003 0.221q -0.493 0.102 -0.8755 0.2295q -0.3825 0.1275 -0.6205 0.3315q -0.238 0.204 -0.238 0.527q 0 0.272 0.136 0.4335q 0.136 0.1615 0.3315 0.2465q 0.1955 0.085 0.4335 0.1105q 0.238 0.0255 0.442 0.0255q 0.646 0 1.122 -0.2465q 0.476 -0.2465 0.527 -0.9435h 2.295q -0.068 0.816 -0.4165 1.3515q -0.3485 0.5355 -0.8755 0.8585q -0.527 0.323 -1.1985 0.459q -0.6715 0.136 -1.3855 0.136q -0.714 0 -1.394 -0.1275q -0.68 -0.1275 -1.224 -0.442q -0.544 -0.3145 -0.8755 -0.8585q -0.3315 -0.544 -0.3315 -1.394q 0 -0.578 0.238 -0.9775q 0.238 -0.3995 0.629 -0.663q 0.391 -0.2635 0.8925 -0.425q 0.5015 -0.1615 1.0285 -0.2805q 1.292 -0.272 2.0145 -0.544q 0.7225 -0.272 0.7225 -0.816q 0 -0.323 -0.153 -0.5355q -0.153 -0.2125 -0.3825 -0.34q -0.2295 -0.1275 -0.51 -0.187q -0.2805 -0.0595 -0.5355 -0.0595q -0.357 0 -0.6885 0.085q -0.3315 0.085 -0.5865 0.2635q -0.255 0.1785 -0.4165 0.459q -0.1615 0.2805 -0.1615 0.6715Z "/></symbol><symbol id="g4851A2FD0A9507704E5E9B1068D82307" overflow="visible"><path d="M 0 0m 0.918 8.789v -8.789h 2.414v 3.961q 0 0.595 0.119 1.105q 0.119 0.51 0.3995 0.8925q 0.2805 0.3825 0.7395 0.6035q 0.459 0.221 1.122 0.221q 0.221 0 0.459 -0.0255q 0.238 -0.0255 0.408 -0.0595v 2.244q -0.289 0.085 -0.527 0.085q -0.459 0 -0.884 -0.136q -0.425 -0.136 -0.799 -0.3825q -0.374 -0.2465 -0.663 -0.595q -0.289 -0.3485 -0.459 -0.7565h -0.034v 1.632h -2.295Z "/></symbol><symbol id="g96FA9F8655F4F1A984BCC89FB84562B0" overflow="visible"><path d="M 0 0m 9.163 0v 8.789h -2.414v -4.607q 0 -1.343 -0.442 -1.9295q -0.442 -0.5865 -1.428 -0.5865q -0.867 0 -1.207 0.5355q -0.34 0.5355 -0.34 1.6235v 4.964h -2.414v -5.406q 0 -0.816 0.1445 -1.4875q 0.1445 -0.6715 0.5015 -1.139q 0.357 -0.4675 0.9775 -0.7225q 0.6205 -0.255 1.5895 -0.255q 0.765 0 1.496 0.34q 0.731 0.34 1.19 1.105h 0.051v -1.224h 2.295Z "/></symbol><symbol id="gEB6F2E5761867EE699C67FD7C2F76830" overflow="visible"><path d="M 0 0m 4.8 12.68v -12.68h 1.9v 12.68h 4.76v 1.6h -11.42v -1.6h 4.76Z "/></symbol><symbol id="gF552C9AAD511651B4FB4EC9AA8E7AC47" overflow="visible"><path d="M 0 0m 3.46 7.44v 5.24h 3.72q 1.62 0 2.37 -0.67q 0.75 -0.67 0.75 -1.95q 0 -1.28 -0.75 -1.96q -0.75 -0.68 -2.37 -0.66h -3.72Z m -1.9 6.84v -14.28h 1.9v 5.84h 4.36q 2.16 -0.02 3.27 1.1q 1.11 1.12 1.11 3.12q 0 2 -1.11 3.11q -1.11 1.11 -3.27 1.11h -6.26Z "/></symbol><symbol id="gE7AB63578547B09BE8D6055C8701CE84" overflow="visible"><path d="M 0 0m 5.94 0l 3.78 10.34h -1.78l -2.82 -8.62h -0.04l -2.9 8.62h -1.9l 3.84 -10.34h 1.82Z "/></symbol><symbol id="gCC4C94A3A44EF7E83B7C565A73D79CBD" overflow="visible"><path d="M 0 0m 1.62 2.28l -0.98 -0.46l -0.64 1.4l 2.48 1.16l 2.88 -6.04l 3.56 17.38h 1.8l -4.22 -20h -1.72l -3.16 6.56Z "/></symbol><symbol id="g16721EB01F8A61B2836375678F03DE8" overflow="visible"><path d="M 0 0m 7.18 0l 5.08 14.28h -1.98l -4.12 -12.38h -0.04l -4.08 12.38h -2.04l 5.02 -14.28h 2.16Z "/></symbol><symbol id="gE41DF878BA4F3B6D9C7BBE2C8D88CC7F" overflow="visible"><path d="M 0 0m 1.56 14.28v -14.28h 9.92v 1.6h -8.02v 4.94h 7.42v 1.6h -7.42v 4.54h 7.96v 1.6h -9.86Z "/></symbol><symbol id="gB6F0790BD384C13DF2E1977168310CE4" overflow="visible"><path d="M 0 0m 1.56 14.28v -14.28h 1.9v 6.1h 4.64q 0.7 0 1.12 -0.21q 0.42 -0.21 0.68 -0.56q 0.26 -0.35 0.38 -0.82q 0.12 -0.47 0.2 -0.99q 0.1 -0.52 0.12 -1.06q 0.02 -0.54 0.04 -1.01q 0.02 -0.47 0.09 -0.85q 0.07 -0.38 0.27 -0.6h 2.12q -0.3 0.36 -0.45 0.83q -0.15 0.47 -0.23 0.99q -0.08 0.52 -0.1 1.06q -0.02 0.54 -0.06 1.06q -0.06 0.52 -0.17 1q -0.11 0.48 -0.34 0.87q -0.23 0.39 -0.62 0.67q -0.39 0.28 -1.01 0.4v 0.04q 1.3 0.36 1.89 1.34q 0.59 0.98 0.59 2.28q 0 1.74 -1.15 2.74q -1.15 1 -3.19 1h -6.72Z m 5.86 -6.58h -3.96v 4.98h 4.72q 1.34 0 1.94 -0.68q 0.6 -0.68 0.6 -1.76q 0 -0.78 -0.27 -1.27q -0.27 -0.49 -0.72 -0.78q -0.45 -0.29 -1.05 -0.39q -0.6 -0.1 -1.26 -0.1Z "/></symbol><symbol id="gE20D1E86C7BF38D78C716EDB8313EF72" overflow="visible"><path d="M 0 0m 9.82 10.1h 1.8q -0.04 1.18 -0.45 2.03q -0.41 0.85 -1.12 1.41q -0.71 0.56 -1.65 0.82q -0.94 0.26 -2.04 0.26q -0.98 0 -1.91 -0.25q -0.93 -0.25 -1.66 -0.76q -0.73 -0.51 -1.17 -1.3q -0.44 -0.79 -0.44 -1.87q 0 -0.98 0.39 -1.63q 0.39 -0.65 1.04 -1.06q 0.65 -0.41 1.47 -0.66q 0.82 -0.25 1.67 -0.44q 0.85 -0.19 1.67 -0.37q 0.82 -0.18 1.47 -0.47q 0.65 -0.29 1.04 -0.75q 0.39 -0.46 0.39 -1.2q 0 -0.78 -0.32 -1.28q -0.32 -0.5 -0.84 -0.79q -0.52 -0.29 -1.17 -0.41q -0.65 -0.12 -1.29 -0.12q -0.8 0 -1.56 0.2q -0.76 0.2 -1.33 0.62q -0.57 0.42 -0.92 1.07q -0.35 0.65 -0.35 1.55h -1.8q 0 -1.3 0.47 -2.25q 0.47 -0.95 1.28 -1.56q 0.81 -0.61 1.88 -0.91q 1.07 -0.3 2.27 -0.3q 0.98 0 1.97 0.23q 0.99 0.23 1.79 0.74q 0.8 0.51 1.31 1.32q 0.51 0.81 0.51 1.95q 0 1.06 -0.39 1.76q -0.39 0.7 -1.04 1.16q -0.65 0.46 -1.47 0.73q -0.82 0.27 -1.67 0.47q -0.85 0.2 -1.67 0.37q -0.82 0.17 -1.47 0.43q -0.65 0.26 -1.04 0.67q -0.39 0.41 -0.39 1.07q 0 0.7 0.27 1.17q 0.27 0.47 0.72 0.75q 0.45 0.28 1.03 0.4q 0.58 0.12 1.18 0.12q 1.48 0 2.43 -0.69q 0.95 -0.69 1.11 -2.23Z "/></symbol><symbol id="gC7A00875F4290DCDB6CAD11C23961C08" overflow="visible"><path d="M 0 0m 12.96 5.16v 9.12h -1.9v -9.12q 0 -1.92 -0.95 -2.91q -0.95 -0.99 -2.77 -0.99q -1.92 0 -2.94 0.99q -1.02 0.99 -1.02 2.91v 9.12h -1.9v -9.12q 0 -2.86 1.55 -4.17q 1.55 -1.31 4.31 -1.31q 2.7 0 4.16 1.37q 1.46 1.37 1.46 4.11Z "/></symbol><symbol id="g500D2945B6B0C263798723C7DECE312A" overflow="visible"><path d="M 0 0m 11.6 9.98h 1.9q -0.16 1.14 -0.68 2.01q -0.52 0.87 -1.3 1.45q -0.78 0.58 -1.78 0.88q -1 0.3 -2.12 0.3q -1.64 0 -2.91 -0.59q -1.27 -0.59 -2.12 -1.61q -0.85 -1.02 -1.29 -2.39q -0.44 -1.37 -0.44 -2.93q 0 -1.56 0.41 -2.92q 0.41 -1.36 1.23 -2.36q 0.82 -1 2.06 -1.57q 1.24 -0.57 2.9 -0.57q 2.74 0 4.32 1.5q 1.58 1.5 1.86 4.2h -1.9q -0.06 -0.88 -0.36 -1.64q -0.3 -0.76 -0.83 -1.31q -0.53 -0.55 -1.26 -0.86q -0.73 -0.31 -1.67 -0.31q -1.28 0 -2.2 0.48q -0.92 0.48 -1.51 1.29q -0.59 0.81 -0.87 1.9q -0.28 1.09 -0.28 2.31q 0 1.12 0.28 2.16q 0.28 1.04 0.87 1.85q 0.59 0.81 1.5 1.29q 0.91 0.48 2.19 0.48q 1.5 0 2.59 -0.76q 1.09 -0.76 1.41 -2.28Z "/></symbol><symbol id="gD7AB49A0BE3336956281F0780AC622AD" overflow="visible"><path d="M 0 0m 1.56 14.28v -14.28h 1.9v 6.54h 7.52v -6.54h 1.9v 14.28h -1.9v -6.14h -7.52v 6.14h -1.9Z "/></symbol><symbol id="g4F8D5E934BDC4565626B925089EB78B4" overflow="visible"><path d="M 0 0m 3.9 9.12v 2.22h -1.18q 0 0.34 0.05 0.69q 0.05 0.35 0.19 0.63q 0.14 0.28 0.36 0.45q 0.22 0.17 0.56 0.17v 1q -0.56 0 -0.98 -0.24q -0.42 -0.24 -0.69 -0.64q -0.27 -0.4 -0.4 -0.93q -0.13 -0.53 -0.13 -1.13v -2.22h 2.22Z "/></symbol><symbol id="gFD237A5484756E9AA324227E37DB9974" overflow="visible"><path d="M 0 0m 3.64 10.34v 3.1h -1.7v -3.1h -1.76v -1.5h 1.76v -6.58q 0 -0.72 0.14 -1.16q 0.14 -0.44 0.43 -0.68q 0.29 -0.24 0.76 -0.33q 0.47 -0.09 1.13 -0.09h 1.3v 1.5h -0.78q -0.4 0 -0.65 0.03q -0.25 0.03 -0.39 0.13q -0.14 0.1 -0.19 0.28q -0.05 0.18 -0.05 0.48v 6.42h 2.06v 1.5h -2.06Z "/></symbol><symbol id="gD4ADD0A69C12E5597305A2D7433CA440" overflow="visible"><path d="M 0 0m 1.22 10.34v -10.34h 1.7v 4.6q 0 1 0.2 1.77q 0.2 0.77 0.64 1.31q 0.44 0.54 1.16 0.82q 0.72 0.28 1.74 0.28v 1.8q -1.38 0.04 -2.28 -0.56q -0.9 -0.6 -1.52 -1.86h -0.04v 2.18h -1.6Z "/></symbol><symbol id="g1D7AD8D49C3D76A745489D8C8BC4FC29" overflow="visible"><path d="M 0 0m 5.34 -1.38q -0.3 -0.76 -0.59 -1.28q -0.29 -0.52 -0.64 -0.85q -0.35 -0.33 -0.78 -0.48q -0.43 -0.15 -0.99 -0.15q -0.3 0 -0.6 0.04q -0.3 0.04 -0.58 0.14v 1.56q 0.22 -0.1 0.51 -0.17q 0.29 -0.07 0.49 -0.07q 0.52 0 0.87 0.25q 0.35 0.25 0.53 0.71l 0.7 1.74l -4.1 10.28h 1.92l 3.02 -8.46h 0.04l 2.9 8.46h 1.8l -4.5 -11.72Z "/></symbol><symbol id="g8DBAC9A3086434C357F768B8944F9B95" overflow="visible"><path d="M 0 0m 1.66 14.28v -2.22h 1.18q 0 -0.34 -0.05 -0.69q -0.05 -0.35 -0.19 -0.63q -0.14 -0.28 -0.36 -0.45q -0.22 -0.17 -0.56 -0.17v -1q 0.58 0 0.99 0.24q 0.41 0.24 0.68 0.64q 0.27 0.4 0.4 0.93q 0.13 0.53 0.13 1.13v 2.22h -2.22Z "/></symbol><symbol id="gB6A6403012270FF02BBB0EAFA55EE33" overflow="visible"><path d="M 0 0m 5.18 13.26v 1.36h -3.74v -18.56h 3.74v 1.36h -2.14v 15.84h 2.14Z "/></symbol><symbol id="g2E6465EEAF83CFB3125C036085DD8AC8" overflow="visible"><path d="M 0 0m 1.34 10.34v -14.28h 1.7v 5.32h 0.04q 0.28 -0.46 0.69 -0.77q 0.41 -0.31 0.87 -0.49q 0.46 -0.18 0.93 -0.26q 0.47 -0.08 0.85 -0.08q 1.18 0 2.07 0.42q 0.89 0.42 1.48 1.15q 0.59 0.73 0.88 1.71q 0.29 0.98 0.29 2.08q 0 1.1 -0.3 2.08q -0.3 0.98 -0.89 1.73q -0.59 0.75 -1.48 1.19q -0.89 0.44 -2.09 0.44q -1.08 0 -1.98 -0.39q -0.9 -0.39 -1.32 -1.25h -0.04v 1.4h -1.7Z m 8 -5.08q 0 -0.76 -0.16 -1.48q -0.16 -0.72 -0.52 -1.28q -0.36 -0.56 -0.95 -0.9q -0.59 -0.34 -1.47 -0.34q -0.88 0 -1.5 0.33q -0.62 0.33 -1.01 0.87q -0.39 0.54 -0.57 1.25q -0.18 0.71 -0.18 1.47q 0 0.72 0.17 1.42q 0.17 0.7 0.55 1.25q 0.38 0.55 0.98 0.89q 0.6 0.34 1.46 0.34q 0.82 0 1.43 -0.32q 0.61 -0.32 1 -0.86q 0.39 -0.54 0.58 -1.23q 0.19 -0.69 0.19 -1.41Z "/></symbol><symbol id="g91F219A66C1BA354ED6F6D4B683D0D7E" overflow="visible"><path d="M 0 0m 10.44 0.04q -0.44 -0.26 -1.22 -0.26q -0.66 0 -1.05 0.37q -0.39 0.37 -0.39 1.21q -0.7 -0.84 -1.63 -1.21q -0.93 -0.37 -2.01 -0.37q -0.7 0 -1.33 0.16q -0.63 0.16 -1.09 0.5q -0.46 0.34 -0.73 0.89q -0.27 0.55 -0.27 1.33q 0 0.88 0.3 1.44q 0.3 0.56 0.79 0.91q 0.49 0.35 1.12 0.53q 0.63 0.18 1.29 0.3q 0.7 0.14 1.33 0.21q 0.63 0.07 1.11 0.2q 0.48 0.13 0.76 0.38q 0.28 0.25 0.28 0.73q 0 0.56 -0.21 0.9q -0.21 0.34 -0.54 0.52q -0.33 0.18 -0.74 0.24q -0.41 0.06 -0.81 0.06q -1.08 0 -1.8 -0.41q -0.72 -0.41 -0.78 -1.55h -1.7q 0.04 0.96 0.4 1.62q 0.36 0.66 0.96 1.07q 0.6 0.41 1.37 0.59q 0.77 0.18 1.65 0.18q 0.7 0 1.39 -0.1q 0.69 -0.1 1.25 -0.41q 0.56 -0.31 0.9 -0.87q 0.34 -0.56 0.34 -1.46v -5.32q 0 -0.6 0.07 -0.88q 0.07 -0.28 0.47 -0.28q 0.22 0 0.52 0.1v -1.32Z m -2.76 5.3q -0.32 -0.24 -0.84 -0.35q -0.52 -0.11 -1.09 -0.18q -0.57 -0.07 -1.15 -0.16q -0.58 -0.09 -1.04 -0.29q -0.46 -0.2 -0.75 -0.57q -0.29 -0.37 -0.29 -1.01q 0 -0.42 0.17 -0.71q 0.17 -0.29 0.44 -0.47q 0.27 -0.18 0.63 -0.26q 0.36 -0.08 0.76 -0.08q 0.84 0 1.44 0.23q 0.6 0.23 0.98 0.58q 0.38 0.35 0.56 0.76q 0.18 0.41 0.18 0.77v 1.74Z "/></symbol><symbol id="g2F425BE466C9DCBC58D7377CA36E51DA" overflow="visible"><path d="M 0 0m 2.32 3.26h -1.7q 0.04 -0.96 0.4 -1.63q 0.36 -0.67 0.96 -1.08q 0.6 -0.41 1.38 -0.59q 0.78 -0.18 1.64 -0.18q 0.78 0 1.57 0.15q 0.79 0.15 1.42 0.53q 0.63 0.38 1.02 1q 0.39 0.62 0.39 1.56q 0 0.74 -0.29 1.24q -0.29 0.5 -0.76 0.83q -0.47 0.33 -1.08 0.53q -0.61 0.2 -1.25 0.34q -0.6 0.14 -1.2 0.27q -0.6 0.13 -1.08 0.32q -0.48 0.19 -0.79 0.48q -0.31 0.29 -0.31 0.73q 0 0.4 0.2 0.65q 0.2 0.25 0.52 0.4q 0.32 0.15 0.71 0.21q 0.39 0.06 0.77 0.06q 0.42 0 0.83 -0.09q 0.41 -0.09 0.75 -0.29q 0.34 -0.2 0.56 -0.53q 0.22 -0.33 0.26 -0.83h 1.7q -0.06 0.94 -0.4 1.57q -0.34 0.63 -0.91 1q -0.57 0.37 -1.31 0.52q -0.74 0.15 -1.62 0.15q -0.68 0 -1.37 -0.17q -0.69 -0.17 -1.24 -0.52q -0.55 -0.35 -0.9 -0.91q -0.35 -0.56 -0.35 -1.34q 0 -1 0.5 -1.56q 0.5 -0.56 1.25 -0.87q 0.75 -0.31 1.63 -0.48q 0.88 -0.17 1.63 -0.38q 0.75 -0.21 1.25 -0.55q 0.5 -0.34 0.5 -1q 0 -0.48 -0.24 -0.79q -0.24 -0.31 -0.61 -0.47q -0.37 -0.16 -0.81 -0.22q -0.44 -0.06 -0.84 -0.06q -0.52 0 -1.01 0.1q -0.49 0.1 -0.88 0.33q -0.39 0.23 -0.63 0.62q -0.24 0.39 -0.26 0.95Z "/></symbol><symbol id="gF8FC0DC7708C6AAFB6D4E4EF9829495C" overflow="visible"><path d="M 0 0m 0 -2.58v -1.36h 3.74v 18.56h -3.74v -1.36h 2.14v -15.84h -2.14Z "/></symbol><symbol id="g6BA70135D52C6C9DBB23B9612EF82FC1" overflow="visible"><path d="M 0 0m 4.752 0l 3.024 8.272h -1.424l -2.256 -6.896h -0.032l -2.32 6.896h -1.52l 3.072 -8.272h 1.456Z "/></symbol><symbol id="g4494A18F86583929ACF5992AF815273C" overflow="visible"><path d="M 0 0m 6.768 4.928h -4.752q 0.032 0.48 0.208 0.904q 0.176 0.424 0.48 0.744q 0.304 0.32 0.728 0.504q 0.424 0.184 0.952 0.184q 0.512 0 0.936 -0.184q 0.424 -0.184 0.736 -0.496q 0.312 -0.312 0.496 -0.744q 0.184 -0.432 0.216 -0.912Z m 1.312 -2.304h -1.344q -0.176 -0.816 -0.728 -1.216q -0.552 -0.4 -1.416 -0.4q -0.672 0 -1.168 0.224q -0.496 0.224 -0.816 0.6q -0.32 0.376 -0.464 0.864q -0.144 0.488 -0.128 1.032h 6.192q 0.032 0.752 -0.136 1.584q -0.168 0.832 -0.608 1.536q -0.44 0.704 -1.168 1.16q -0.728 0.456 -1.832 0.456q -0.848 0 -1.56 -0.32q -0.712 -0.32 -1.232 -0.896q -0.52 -0.576 -0.808 -1.36q -0.288 -0.784 -0.288 -1.728q 0.032 -0.944 0.28 -1.744q 0.248 -0.8 0.744 -1.376q 0.496 -0.576 1.224 -0.896q 0.728 -0.32 1.72 -0.32q 1.408 0 2.336 0.704q 0.928 0.704 1.2 2.096Z "/></symbol><symbol id="gB76A3373AC653EE95CC024987E1CD9" overflow="visible"><path d="M 0 0m 0.976 8.272v -8.272h 1.36v 3.68q 0 0.8 0.16 1.416q 0.16 0.616 0.512 1.048q 0.352 0.432 0.928 0.656q 0.576 0.224 1.392 0.224v 1.44q -1.104 0.032 -1.824 -0.448q -0.72 -0.48 -1.216 -1.488h -0.032v 1.744h -1.28Z "/></symbol><symbol id="g4BE173CC61B2A9AE63FBA9CC834A9B68" overflow="visible"><path d="M 0 0m 1.856 2.608h -1.36q 0.032 -0.768 0.32 -1.304q 0.288 -0.536 0.768 -0.864q 0.48 -0.328 1.104 -0.472q 0.624 -0.144 1.312 -0.144q 0.624 0 1.256 0.12q 0.632 0.12 1.136 0.424q 0.504 0.304 0.816 0.8q 0.312 0.496 0.312 1.248q 0 0.592 -0.232 0.992q -0.232 0.4 -0.608 0.664q -0.376 0.264 -0.864 0.424q -0.488 0.16 -1 0.272q -0.48 0.112 -0.96 0.216q -0.48 0.104 -0.864 0.256q -0.384 0.152 -0.632 0.384q -0.248 0.232 -0.248 0.584q 0 0.32 0.16 0.52q 0.16 0.2 0.416 0.32q 0.256 0.12 0.568 0.168q 0.312 0.048 0.616 0.048q 0.336 0 0.664 -0.072q 0.328 -0.072 0.6 -0.232q 0.272 -0.16 0.448 -0.424q 0.176 -0.264 0.208 -0.664h 1.36q -0.048 0.752 -0.32 1.256q -0.272 0.504 -0.728 0.8q -0.456 0.296 -1.048 0.416q -0.592 0.12 -1.296 0.12q -0.544 0 -1.096 -0.136q -0.552 -0.136 -0.992 -0.416q -0.44 -0.28 -0.72 -0.728q -0.28 -0.448 -0.28 -1.072q 0 -0.8 0.4 -1.248q 0.4 -0.448 1 -0.696q 0.6 -0.248 1.304 -0.384q 0.704 -0.136 1.304 -0.304q 0.6 -0.168 1 -0.44q 0.4 -0.272 0.4 -0.8q 0 -0.384 -0.192 -0.632q -0.192 -0.248 -0.488 -0.376q -0.296 -0.128 -0.648 -0.176q -0.352 -0.048 -0.672 -0.048q -0.416 0 -0.808 0.08q -0.392 0.08 -0.704 0.264q -0.312 0.184 -0.504 0.496q -0.192 0.312 -0.208 0.76Z "/></symbol><symbol id="g7C815C8B9DA3AD91FD51CB7A3A7E8BBF" overflow="visible"><path d="M 0 0m 7.872 0v 8.272h -1.36v -4.672q 0 -0.56 -0.152 -1.032q -0.152 -0.472 -0.456 -0.824q -0.304 -0.352 -0.76 -0.544q -0.456 -0.192 -1.08 -0.192q -0.784 0 -1.232 0.448q -0.448 0.448 -0.448 1.216v 5.6h -1.36v -5.44q 0 -0.672 0.136 -1.224q 0.136 -0.552 0.472 -0.952q 0.336 -0.4 0.88 -0.616q 0.544 -0.216 1.36 -0.216q 0.912 0 1.584 0.36q 0.672 0.36 1.104 1.128h 0.032v -1.312h 1.28Z "/></symbol><symbol id="g79854F1CD88442C5FC5B90384B771EB4" overflow="visible"><path d="M 0 0m 6.64 5.616h 1.408q -0.08 0.736 -0.384 1.272q -0.304 0.536 -0.776 0.888q -0.472 0.352 -1.088 0.52q -0.616 0.168 -1.32 0.168q -0.976 0 -1.712 -0.344q -0.736 -0.344 -1.224 -0.944q -0.488 -0.6 -0.728 -1.408q -0.24 -0.808 -0.24 -1.736q 0 -0.928 0.248 -1.704q 0.248 -0.776 0.736 -1.336q 0.488 -0.56 1.216 -0.864q 0.728 -0.304 1.672 -0.304q 1.584 0 2.504 0.832q 0.92 0.832 1.144 2.368h -1.392q -0.128 -0.96 -0.696 -1.488q -0.568 -0.528 -1.576 -0.528q -0.64 0 -1.104 0.256q -0.464 0.256 -0.752 0.68q -0.288 0.424 -0.424 0.968q -0.136 0.544 -0.136 1.12q 0 0.624 0.128 1.208q 0.128 0.584 0.424 1.032q 0.296 0.448 0.792 0.72q 0.496 0.272 1.232 0.272q 0.864 0 1.376 -0.432q 0.512 -0.432 0.672 -1.216Z "/></symbol><symbol id="g351562DC7666F64B72FCF7315F52055A" overflow="visible"><path d="M 0 0m 1.024 11.424v -11.424h 1.36v 4.672q 0 0.56 0.152 1.032q 0.152 0.472 0.456 0.824q 0.304 0.352 0.76 0.544q 0.456 0.192 1.08 0.192q 0.784 0 1.232 -0.448q 0.448 -0.448 0.448 -1.216v -5.6h 1.36v 5.44q 0 0.672 -0.136 1.224q -0.136 0.552 -0.472 0.952q -0.336 0.4 -0.88 0.624q -0.544 0.224 -1.36 0.224q -0.368 0 -0.76 -0.08q -0.392 -0.08 -0.752 -0.248q -0.36 -0.168 -0.648 -0.432q -0.288 -0.264 -0.448 -0.648h -0.032v 4.368h -1.36Z "/></symbol><symbol id="gC976FC95DD3C9237829BC4B5040D1736" overflow="visible"><path d="M 0 0m 0.8 5.088v -1.28h 4.624v 1.28h -4.624Z "/></symbol><symbol id="g61CECA910D47192862F630690488ECA3" overflow="visible"><path d="M 0 0m 2.912 8.272v 2.48h -1.36v -2.48h -1.408v -1.2h 1.408v -5.264q 0 -0.576 0.112 -0.928q 0.112 -0.352 0.344 -0.544q 0.232 -0.192 0.608 -0.264q 0.376 -0.072 0.904 -0.072h 1.04v 1.2h -0.624q -0.32 0 -0.52 0.024q -0.2 0.024 -0.312 0.104q -0.112 0.08 -0.152 0.224q -0.04 0.144 -0.04 0.384v 5.136h 1.648v 1.2h -1.648Z "/></symbol><symbol id="gCA50D4B2A9769A2B58ECD4E109D3EDCE" overflow="visible"><path d="M 0 0m 3.104 6.496v 1.776h -1.776v -1.776h 1.776Z m -1.776 -4.72v -1.776h 1.776v 1.776h -1.776Z "/></symbol><symbol id="g6B45CBA016B6B623FDA3146C2EF8DAE4" overflow="visible"><path d="M 0 0m 3.12 7.296v 1.776h -0.944q 0 0.272 0.04 0.552q 0.04 0.28 0.152 0.504q 0.112 0.224 0.288 0.36q 0.176 0.136 0.448 0.136v 0.8q -0.448 0 -0.784 -0.192q -0.336 -0.192 -0.552 -0.512q -0.216 -0.32 -0.32 -0.744q -0.104 -0.424 -0.104 -0.904v -1.776h 1.776Z "/></symbol><symbol id="gD27733CB4F589A49ADA08C9C44FA3371" overflow="visible"><path d="M 0 0m 2.464 9.76v 1.664h -1.36v -1.664h 1.36Z m -1.36 -1.488v -8.272h 1.36v 8.272h -1.36Z "/></symbol><symbol id="g4F5F6BD8A7D68756244F0FC18350D7C5" overflow="visible"><path d="M 0 0m 2.016 4.064q 0 0.608 0.128 1.184q 0.128 0.576 0.416 1.024q 0.288 0.448 0.768 0.72q 0.48 0.272 1.168 0.272q 0.704 0 1.2 -0.264q 0.496 -0.264 0.808 -0.696q 0.312 -0.432 0.456 -1q 0.144 -0.568 0.144 -1.176q 0 -0.576 -0.136 -1.136q -0.136 -0.56 -0.44 -1q -0.304 -0.44 -0.784 -0.712q -0.48 -0.272 -1.168 -0.272q -0.656 0 -1.144 0.256q -0.488 0.256 -0.8 0.688q -0.312 0.432 -0.464 0.984q -0.152 0.552 -0.152 1.128Z m 6.4 -4.064v 11.424h -1.36v -4.256h -0.032q -0.224 0.368 -0.552 0.616q -0.328 0.248 -0.696 0.4q -0.368 0.152 -0.736 0.216q -0.368 0.064 -0.688 0.064q -0.944 0 -1.656 -0.344q -0.712 -0.344 -1.184 -0.928q -0.472 -0.584 -0.704 -1.368q -0.232 -0.784 -0.232 -1.664q 0 -0.88 0.24 -1.664q 0.24 -0.784 0.712 -1.376q 0.472 -0.592 1.184 -0.944q 0.712 -0.352 1.672 -0.352q 0.864 0 1.584 0.304q 0.72 0.304 1.056 0.992h 0.032v -1.12h 1.36Z "/></symbol><symbol id="gBEDDEB2E78195596984FC62BDEABC2E8" overflow="visible"><path d="M 0 0m 1.328 11.424v -1.776h 0.944q 0 -0.272 -0.04 -0.552q -0.04 -0.28 -0.152 -0.504q -0.112 -0.224 -0.288 -0.36q -0.176 -0.136 -0.448 -0.136v -0.8q 0.464 0 0.792 0.192q 0.328 0.192 0.544 0.512q 0.216 0.32 0.32 0.744q 0.104 0.424 0.104 0.904v 1.776h -1.776Z "/></symbol><symbol id="g315A18166C6C92C3978B77F90414D71" overflow="visible"><path d="M 0 0m 25.68 2.46c 2.58 2.91 5.01 4.59 6.48 5.1v 0.69c -3.24 1.32 -6.48 5.16 -6.48 5.19h -1.2c 1.17 -2.52 2.4 -3.9 3.39 -4.71h -26.1v -1.56h 26.1c -0.96 -0.93 -2.43 -2.55 -3.33 -4.71Z "/></symbol><symbol id="g6AB75E16F8BF6E3FDDD6B1181CC34A54" overflow="visible"><path d="M 0 0m 3.842 6.647v 3.417h 2.924q 0.918 0 1.377 -0.3995q 0.459 -0.3995 0.459 -1.2835q 0 -0.918 -0.459 -1.326q -0.459 -0.408 -1.377 -0.408h -2.924Z m -2.669 5.491v -12.138h 2.669v 4.743h 2.669q 1.003 0 1.445 -0.442q 0.442 -0.442 0.578 -1.394q 0.102 -0.731 0.153 -1.53q 0.051 -0.799 0.272 -1.377h 2.669q -0.187 0.255 -0.2805 0.6205q -0.0935 0.3655 -0.136 0.7735q -0.0425 0.408 -0.0595 0.799q -0.017 0.391 -0.034 0.68q -0.034 0.459 -0.1275 0.918q -0.0935 0.459 -0.2975 0.8415q -0.204 0.3825 -0.527 0.663q -0.323 0.2805 -0.816 0.4165v 0.034q 1.02 0.408 1.4705 1.19q 0.4505 0.782 0.4505 1.853q 0 0.697 -0.2465 1.3005q -0.2465 0.6035 -0.714 1.0625q -0.4675 0.459 -1.122 0.7225q -0.6545 0.2635 -1.4705 0.2635h -6.545Z "/></symbol><symbol id="gF02DFC422346E717CBD33E347E1010E1" overflow="visible"><path d="M 0 0m 3.4 10.149v 1.989h -2.414v -1.989h 2.414Z m -2.414 -1.36v -8.789h 2.414v 8.789h -2.414Z "/></symbol><symbol id="gC0F62BC51653D02AC2E78ABEF300D667" overflow="visible"><path d="M 0 0m 5.355 1.581q -0.578 0 -0.986 0.238q -0.408 0.238 -0.6545 0.6205q -0.2465 0.3825 -0.357 0.8925q -0.1105 0.51 -0.1105 1.037q 0 0.544 0.102 1.054q 0.102 0.51 0.3485 0.901q 0.2465 0.391 0.646 0.6375q 0.3995 0.2465 0.9945 0.2465q 0.578 0 0.9775 -0.2465q 0.3995 -0.2465 0.6545 -0.646q 0.255 -0.3995 0.3655 -0.9095q 0.1105 -0.51 0.1105 -1.037q 0 -0.527 -0.102 -1.037q -0.102 -0.51 -0.3485 -0.8925q -0.2465 -0.3825 -0.646 -0.6205q -0.3995 -0.238 -0.9945 -0.238Z m -4.437 7.208v -11.866h 2.414v 4.165h 0.034q 0.442 -0.646 1.1305 -0.9775q 0.6885 -0.3315 1.5045 -0.3315q 0.969 0 1.6915 0.374q 0.7225 0.374 1.207 1.003q 0.4845 0.629 0.7225 1.445q 0.238 0.816 0.238 1.7q 0 0.935 -0.238 1.7935q -0.238 0.8585 -0.731 1.5045q -0.493 0.646 -1.241 1.037q -0.748 0.391 -1.785 0.391q -0.816 0 -1.496 -0.323q -0.68 -0.323 -1.122 -1.037h -0.034v 1.122h -2.295Z "/></symbol><symbol id="g4EC2CB91F65BF93630EE148790A2E033" overflow="visible"><path d="M 0 0m 1.56 14.28v -14.28h 1.9v 5l 2.38 2.22l 5.16 -7.22h 2.4l -6.26 8.52l 6.02 5.76h -2.46l -7.24 -7.12v 7.12h -1.9Z "/></symbol><symbol id="g688E0CD1C5E7342757B17E3ADF1F26AD" overflow="visible"><path d="M 0 0m 2.66 7.14q 0 1.08 0.28 2.13q 0.28 1.05 0.88 1.89q 0.6 0.84 1.54 1.35q 0.94 0.51 2.24 0.51q 1.3 0 2.24 -0.51q 0.94 -0.51 1.54 -1.35q 0.6 -0.84 0.88 -1.89q 0.28 -1.05 0.28 -2.13q 0 -1.08 -0.28 -2.13q -0.28 -1.05 -0.88 -1.89q -0.6 -0.84 -1.54 -1.35q -0.94 -0.51 -2.24 -0.51q -1.3 0 -2.24 0.51q -0.94 0.51 -1.54 1.35q -0.6 0.84 -0.88 1.89q -0.28 1.05 -0.28 2.13Z m -1.9 0q 0 -1.46 0.43 -2.81q 0.43 -1.35 1.29 -2.39q 0.86 -1.04 2.14 -1.65q 1.28 -0.61 2.98 -0.61q 1.7 0 2.98 0.61q 1.28 0.61 2.14 1.65q 0.86 1.04 1.29 2.39q 0.43 1.35 0.43 2.81q 0 1.46 -0.43 2.81q -0.43 1.35 -1.29 2.39q -0.86 1.04 -2.14 1.66q -1.28 0.62 -2.98 0.62q -1.7 0 -2.98 -0.62q -1.28 -0.62 -2.14 -1.66q -0.86 -1.04 -1.29 -2.39q -0.43 -1.35 -0.43 -2.81Z "/></symbol><symbol id="g1B7F49F910B576701B832486E6878297" overflow="visible"><path d="M 0 0m 1.6 14.28v -14.28h 1.8v 11.88h 0.04l 4.46 -11.88h 1.62l 4.46 11.88h 0.04v -11.88h 1.8v 14.28h -2.6l -4.52 -12l -4.5 12h -2.6Z "/></symbol><symbol id="gB773CD94B456694123B737648DC4D5A2" overflow="visible"><path d="M 0 0m 8.3 7.02h 1.76q -0.1 0.92 -0.48 1.59q -0.38 0.67 -0.97 1.11q -0.59 0.44 -1.36 0.65q -0.77 0.21 -1.65 0.21q -1.22 0 -2.14 -0.43q -0.92 -0.43 -1.53 -1.18q -0.61 -0.75 -0.91 -1.76q -0.3 -1.01 -0.3 -2.17q 0 -1.16 0.31 -2.13q 0.31 -0.97 0.92 -1.67q 0.61 -0.7 1.52 -1.08q 0.91 -0.38 2.09 -0.38q 1.98 0 3.13 1.04q 1.15 1.04 1.43 2.96h -1.74q -0.16 -1.2 -0.87 -1.86q -0.71 -0.66 -1.97 -0.66q -0.8 0 -1.38 0.32q -0.58 0.32 -0.94 0.85q -0.36 0.53 -0.53 1.21q -0.17 0.68 -0.17 1.4q 0 0.78 0.16 1.51q 0.16 0.73 0.53 1.29q 0.37 0.56 0.99 0.9q 0.62 0.34 1.54 0.34q 1.08 0 1.72 -0.54q 0.64 -0.54 0.84 -1.52Z "/></symbol><symbol id="g14009543D0208FBAC417C6FFB05F04FC" overflow="visible"><path d="M 0 0m 2.52 5.16q 0 0.94 0.25 1.67q 0.25 0.73 0.69 1.23q 0.44 0.5 1.03 0.76q 0.59 0.26 1.25 0.26q 0.66 0 1.25 -0.26q 0.59 -0.26 1.03 -0.76q 0.44 -0.5 0.69 -1.23q 0.25 -0.73 0.25 -1.67q 0 -0.94 -0.25 -1.67q -0.25 -0.73 -0.69 -1.22q -0.44 -0.49 -1.03 -0.75q -0.59 -0.26 -1.25 -0.26q -0.66 0 -1.25 0.26q -0.59 0.26 -1.03 0.75q -0.44 0.49 -0.69 1.22q -0.25 0.73 -0.25 1.67Z m -1.8 0q 0 -1.14 0.32 -2.12q 0.32 -0.98 0.96 -1.71q 0.64 -0.73 1.58 -1.14q 0.94 -0.41 2.16 -0.41q 1.24 0 2.17 0.41q 0.93 0.41 1.57 1.14q 0.64 0.73 0.96 1.71q 0.32 0.98 0.32 2.12q 0 1.14 -0.32 2.13q -0.32 0.99 -0.96 1.72q -0.64 0.73 -1.57 1.15q -0.93 0.42 -2.17 0.42q -1.22 0 -2.16 -0.42q -0.94 -0.42 -1.58 -1.15q -0.64 -0.73 -0.96 -1.72q -0.32 -0.99 -0.32 -2.13Z "/></symbol><symbol id="gA985442DEE5C1EF1013546D4307356A5" overflow="visible"><path d="M 0 0m 1.28 10.34v -10.34h 1.7v 6.44q 0 0.3 0.15 0.75q 0.15 0.45 0.48 0.87q 0.33 0.42 0.86 0.72q 0.53 0.3 1.27 0.3q 0.58 0 0.95 -0.17q 0.37 -0.17 0.59 -0.48q 0.22 -0.31 0.31 -0.73q 0.09 -0.42 0.09 -0.92v -6.78h 1.7v 6.44q 0 1.2 0.72 1.92q 0.72 0.72 1.98 0.72q 0.62 0 1.01 -0.18q 0.39 -0.18 0.61 -0.49q 0.22 -0.31 0.3 -0.73q 0.08 -0.42 0.08 -0.9v -6.78h 1.7v 7.58q 0 0.8 -0.25 1.37q -0.25 0.57 -0.7 0.93q -0.45 0.36 -1.08 0.53q -0.63 0.17 -1.41 0.17q -1.02 0 -1.87 -0.46q -0.85 -0.46 -1.37 -1.3q -0.32 0.96 -1.1 1.36q -0.78 0.4 -1.74 0.4q -2.18 0 -3.34 -1.76h -0.04v 1.52h -1.6Z "/></symbol><symbol id="g960B7B1CCB13C20C9368DFB85CBECAA2" overflow="visible"><path d="M 0 0m 8.46 6.16h -5.94q 0.04 0.6 0.26 1.13q 0.22 0.53 0.6 0.93q 0.38 0.4 0.91 0.63q 0.53 0.23 1.19 0.23q 0.64 0 1.17 -0.23q 0.53 -0.23 0.92 -0.62q 0.39 -0.39 0.62 -0.93q 0.23 -0.54 0.27 -1.14Z m 1.64 -2.88h -1.68q -0.22 -1.02 -0.91 -1.52q -0.69 -0.5 -1.77 -0.5q -0.84 0 -1.46 0.28q -0.62 0.28 -1.02 0.75q -0.4 0.47 -0.58 1.08q -0.18 0.61 -0.16 1.29h 7.74q 0.04 0.94 -0.17 1.98q -0.21 1.04 -0.76 1.92q -0.55 0.88 -1.46 1.45q -0.91 0.57 -2.29 0.57q -1.06 0 -1.95 -0.4q -0.89 -0.4 -1.54 -1.12q -0.65 -0.72 -1.01 -1.7q -0.36 -0.98 -0.36 -2.16q 0.04 -1.18 0.35 -2.18q 0.31 -1 0.93 -1.72q 0.62 -0.72 1.53 -1.12q 0.91 -0.4 2.15 -0.4q 1.76 0 2.92 0.88q 1.16 0.88 1.5 2.62Z "/></symbol><symbol id="gF944168B5EF08D92B1537F2BA827F6A1" overflow="visible"><path d="M 0 0m 1.104 11.424v -11.424h 1.36v 3.136l 1.28 1.184l 2.832 -4.32h 1.728l -3.52 5.264l 3.28 3.008h -1.824l -3.776 -3.616v 6.768h -1.36Z "/></symbol><symbol id="g9BDBDF23EE9D4F4A276DD26AFB00FB11" overflow="visible"><path d="M 0 0m 8.352 0.032q -0.352 -0.208 -0.976 -0.208q -0.528 0 -0.84 0.296q -0.312 0.296 -0.312 0.968q -0.56 -0.672 -1.304 -0.968q -0.744 -0.296 -1.608 -0.296q -0.56 0 -1.064 0.128q -0.504 0.128 -0.872 0.4q -0.368 0.272 -0.584 0.712q -0.216 0.44 -0.216 1.064q 0 0.704 0.24 1.152q 0.24 0.448 0.632 0.728q 0.392 0.28 0.896 0.424q 0.504 0.144 1.032 0.24q 0.56 0.112 1.064 0.168q 0.504 0.056 0.888 0.16q 0.384 0.104 0.608 0.304q 0.224 0.2 0.224 0.584q 0 0.448 -0.168 0.72q -0.168 0.272 -0.432 0.416q -0.264 0.144 -0.592 0.192q -0.328 0.048 -0.648 0.048q -0.864 0 -1.44 -0.328q -0.576 -0.328 -0.624 -1.24h -1.36q 0.032 0.768 0.32 1.296q 0.288 0.528 0.768 0.856q 0.48 0.328 1.096 0.472q 0.616 0.144 1.32 0.144q 0.56 0 1.112 -0.08q 0.552 -0.08 1 -0.328q 0.448 -0.248 0.72 -0.696q 0.272 -0.448 0.272 -1.168v -4.256q 0 -0.48 0.056 -0.704q 0.056 -0.224 0.376 -0.224q 0.176 0 0.416 0.08v -1.056Z m -2.208 4.24q -0.256 -0.192 -0.672 -0.28q -0.416 -0.088 -0.872 -0.144q -0.456 -0.056 -0.92 -0.128q -0.464 -0.072 -0.832 -0.232q -0.368 -0.16 -0.6 -0.456q -0.232 -0.296 -0.232 -0.808q 0 -0.336 0.136 -0.568q 0.136 -0.232 0.352 -0.376q 0.216 -0.144 0.504 -0.208q 0.288 -0.064 0.608 -0.064q 0.672 0 1.152 0.184q 0.48 0.184 0.784 0.464q 0.304 0.28 0.448 0.608q 0.144 0.328 0.144 0.616v 1.392Z "/></symbol><symbol id="g8FE02918DF27341599B8BDEFED69F072" overflow="visible"><path d="M 0 0m 1.024 8.272v -8.272h 1.36v 5.152q 0 0.24 0.12 0.6q 0.12 0.36 0.384 0.696q 0.264 0.336 0.688 0.576q 0.424 0.24 1.016 0.24q 0.464 0 0.76 -0.136q 0.296 -0.136 0.472 -0.384q 0.176 -0.248 0.248 -0.584q 0.072 -0.336 0.072 -0.736v -5.424h 1.36v 5.152q 0 0.96 0.576 1.536q 0.576 0.576 1.584 0.576q 0.496 0 0.808 -0.144q 0.312 -0.144 0.488 -0.392q 0.176 -0.248 0.24 -0.584q 0.064 -0.336 0.064 -0.72v -5.424h 1.36v 6.064q 0 0.64 -0.2 1.096q -0.2 0.456 -0.56 0.744q -0.36 0.288 -0.864 0.424q -0.504 0.136 -1.128 0.136q -0.816 0 -1.496 -0.368q -0.68 -0.368 -1.096 -1.04q -0.256 0.768 -0.88 1.088q -0.624 0.32 -1.392 0.32q -1.744 0 -2.672 -1.408h -0.032v 1.216h -1.28Z "/></symbol></defs></svg>
